# xmcd
#
# Track frame offsets:
#	150
#	24596
#	41415
#	63857
#	80616
#	101002
#	115991
#	137709
#	157651
#	174598
#	193218
#	214112
#
# Disc length: 3096 seconds
#
# Revision: 0
# Processed by: cddbd v1.5.1PL0 Copyright (c) Steve Scherf et al.
# Submitted via: EasyCDDAExtractor 5.0.2.1
#
DISCID=9e0c160c
DTITLE=De Dijk - Later is nu
DYEAR=2005
DGENRE=Pop
TTITLE0=Recht in de ogen
TTITLE1=Lieve lach
TTITLE2=Elke dag opnieuw
TTITLE3=Later is nu
TTITLE4=De onbedrinkbare dorst
TTITLE5=God bestaat niet
TTITLE6=Kom blauwe regen
TTITLE7=Sterker dan wij twee
TTITLE8=Nooit meer droge ogen
TTITLE9=Dit kleine hart van mij
TTITLE10=De wind draait
TTITLE11=Zullen we dansen
EXTD=
EXTT0=
EXTT1=
EXTT2=
EXTT3=
EXTT4=
EXTT5=
EXTT6=
EXTT7=
EXTT8=
EXTT9=
EXTT10=
EXTT11=
PLAYORDER=
